# AST/ASF file generated using VICON BodyLanguage
# -----------------------------------------------
:version 1.10
:name VICON
:units
  mass 1.0
  length 0.45
  angle deg
:documentation
   .ast/.asf automatically generated from VICON data using
   VICON BodyBuilder and BodyLanguage model FoxedUp or BRILLIANT.MOD
:root
   order TX TY TZ RX RY RZ
   axis XYZ
   position 0 0 0  
   orientation 0 0 0 
:bonedata
  begin
     id 1 
     name lhipjoint
     direction 0.702568 -0.596508 0.388042 
     length 2.56661 
     axis 0 0 0  XYZ
  end
  begin
     id 2 
     name lfemur
     direction 0.34202 -0.939693 0  
     length 6.58374  
     axis 0 0 20  XYZ
    dof rx ry rz
    limits (-160.0 20.0)
           (-70.0 70.0)
           (-60.0 70.0)
  end
  begin
     id 3 
     name ltibia
     direction 0.34202 -0.939693 0   
     length 6.62538   
     axis 0 0 20   XYZ
    dof rx
    limits (-10.0 170.0)
  end
  begin
     id 4 
     name lfoot
     direction 0.10455 -0.287249 0.952133   
     length 2.26699   
     axis -90 7.62852e-016 20   XYZ
    dof rx rz
    limits (-45.0 90.0)
           (-70.0 20.0)
  end
  begin
     id 5 
     name ltoes
     direction 1.53572e-011 -4.22322e-011 1   
     length 1.12949   
     axis -90 7.62852e-016 20   XYZ
    dof rx
    limits (-90.0 20.0)
  end
  begin
     id 6 
     name rhipjoint
     direction -0.728055 -0.574632 0.373811   
     length 2.66432  
     axis 0 0 0  XYZ 
  end
  begin
     id 7 
     name rfemur
     direction -0.34202 -0.939693 0   
     length 6.66732   
     axis 0 0 -20   XYZ
    dof rx ry rz
    limits (-160.0 20.0)
           (-70.0 70.0)
           (-70.0 60.0)
  end
  begin
     id 8 
     name rtibia
     direction -0.34202 -0.939693 0   
     length 6.59288   
     axis 0 0 -20   XYZ
    dof rx
    limits (-10.0 170.0)
 end
 begin
     id 9 
     name rfoot
     direction -0.119193 -0.327479 0.93731   
     length 2.38061  
     axis -90 -7.62852e-016 -20   XYZ
    dof rx rz
    limits (-45.0 90.0)
           (-20.0 70.0)
  end
  begin
     id 10 
     name rtoes
     direction -1.53547e-011 -4.21827e-011 1   
     length 1.17899   
     axis -90 -7.62852e-016 -20   XYZ
    dof rx
    limits (-90.0 20.0)
  end
  begin
     id 11 
     name lowerback
     direction -0.000416114 0.999912 -0.0132284   
     length 2.12109   
     axis 0 0 0   XYZ
    dof rx ry rz
    limits (-20.0 45.0)
           (-30.0 30.0)
           (-30.0 30.0)
  end
  begin
     id 12 
     name upperback
     direction -0.00136371 0.99809 0.0617608   
     length 2.10067   
     axis 0 0 0   XYZ
    dof rx ry rz
    limits (-20.0 45.0)
           (-30.0 30.0)
           (-30.0 30.0)
  end
  begin
     id 13 
     name thorax
     direction -3.43026e-005 0.997776 0.0666515   
     length 2.10618   
     axis 0 0 0   XYZ
    dof rx ry rz
    limits (-20.0 45.0)
           (-30.0 30.0)
           (-30.0 30.0)
  end
  begin
     id 14 
     name lowerneck
     direction 0.0398646 0.998418 0.0396592   
     length 1.83817   
     axis 0 0 0   XYZ
    dof rx ry rz
    limits (-20.0 45.0)
           (-30.0 30.0)
           (-30.0 30.0)
  end
  begin
     id 15 
     name upperneck
     direction -0.0367268 0.961527 -0.272244   
     length 1.81975   
     axis 0 0 0   XYZ
    dof rx ry rz
    limits (-20.0 45.0)
           (-30.0 30.0)
           (-30.0 30.0)
  end
  begin
     id 16
     name head
     direction -0.0182665 0.99536 -0.0944669  
     length 1.86026  
     axis 0 0 0   XYZ
    dof rx ry rz
    limits (-20.0 45.0)
           (-30.0 30.0)
           (-30.0 30.0)
  end
  begin
     id 17 
     name lclavicle
     direction 0.924239 0.361045 0.124212  
     length 3.26878  
     axis 0 0 0   XYZ
    dof ry rz
    limits (-20.0 10.0)
           (0.0 20.0)
  end
  begin
     id 18 
     name lhumerus
     direction 1 -4.48968e-011 -2.56583e-027   
     length 4.58538   
     axis 180 -30 -90   XYZ
    dof rx ry rz
    limits (-60.0 90.0)
           (-90.0 90.0)
           (-90.0 90.0)
  end
  begin
     id 19
     name lradius
     direction 1 -4.4898e-011 -5.50375e-027   
     length 2.68935   
     axis 180 -30 -90   XYZ
    dof rx
    limits (-10.0 170.0)
  end
  begin
     id 20
     name lwrist
     direction 1 -4.48939e-011 -1.48955e-026   
     length 1.34468   
     axis 9.0955e-015 90 90   XYZ
    dof ry
    limits (-180.0 0.0)
 end
  begin
     id 21 
     name lhand
     direction 1 -4.48936e-011 -2.97907e-026   
     length 0.585058   
     axis 1.90115e-014 90 90   XYZ
    dof rx rz
    limits (-90.0 90.0)
           (-45.0 45.0)
  end
  begin
     id 22 
     name lfingers
     direction 1 -4.49082e-011 -5.96235e-026   
     length 0.471689   
     axis 3.80223e-014 90 90   XYZ
    dof rx
    limits (0.0 90.0)
  end
  begin
     id 23
     name lthumb
     direction 0.707107 -6.3489e-011 0.707107   
     length 0.677253   
     axis -90 45 -3.84942e-014   XYZ
    dof rx rz
    limits (-45.0 45.0)
           (-45.0 45.0)
  end
  begin
     id 24 
     name rclavicle
     direction -0.923098 0.371783 0.0983239   
     length 3.19656  
     axis 0 0 0   XYZ 
    dof ry rz
    limits (-10.0 20.0)
           (-20.0 0.0)
  end
  begin
     id 25 
     name rhumerus
     direction -1 -4.48976e-011 -2.5492e-027  
     length 4.4745   
     axis 180 30 90   XYZ
    dof rx ry rz
    limits (-90.0 60.0)
           (-90.0 90.0)
           (-90.0 90.0)
  end
  begin
     id 26 
     name rradius
     direction -1 -4.48941e-011 -4.36555e-027   
     length 2.93896   
     axis 180 30 90   XYZ
    dof rx
    limits (-10.0 170.0)
  end
  begin
     id 27 
     name rwrist
     direction -1 -4.49044e-011 -1.49032e-026   
     length 1.46948   
     axis 9.0955e-015 -90 -90   XYZ
    dof ry
    limits (-180.0 0.0)
  end
  begin
     id 28
     name rhand
     direction -1 -4.48826e-011 -2.97749e-026   
     length 0.405092   
     axis 1.90115e-014 -90 -90   XYZ
    dof rx rz
    limits (-90.0 90.0)
           (-45.0 45.0)
  end
  begin
     id 29
     name rfingers
     direction -1 -4.49209e-011 -5.96602e-026   
     length 0.326596   
     axis 3.80223e-014 -90 -90   XYZ
    dof rx
    limits (0.0 90.0)
  end
  begin
     id 30
     name rthumb
     direction -0.707107 -6.34776e-011 0.707107   
     length 0.468928   
     axis -90 -45 3.84942e-014   XYZ
    dof rx rz
    limits (-45.0 45.0)
           (-45.0 45.0)
  end
:hierarchy
  begin
    root lhipjoint rhipjoint lowerback
    lhipjoint lfemur
    lfemur ltibia
    ltibia lfoot
    lfoot ltoes
    rhipjoint rfemur
    rfemur rtibia
    rtibia rfoot
    rfoot rtoes
    lowerback upperback
    upperback thorax
    thorax lowerneck lclavicle rclavicle
    lowerneck upperneck
    upperneck head
    lclavicle lhumerus
    lhumerus lradius
    lradius lwrist
    lwrist lhand lthumb
    lhand lfingers
    rclavicle rhumerus
    rhumerus rradius
    rradius rwrist
    rwrist rhand rthumb
    rhand rfingers
  end

#!OML:ASF H:\Punching\Project 1\Capture day 1\Session 1\female.ASF
:FULLY-SPECIFIED
:DEGREES
175
root 2.45627 15.0119 1.80919 -11.0196 6.55305 1.15012
lowerback 2.17149 -0.334882 0.931212
upperback 0.942505 -0.419667 1.69446
thorax -0.245879 -0.210154 1.22282
lowerneck -2.29768 -0.194902 10.4981
upperneck 46.8718 -1.02102 -2.88744
head 17.8976 1.21549 -3.38937
rclavicle -4.67144e-015 9.54166e-015
rhumerus -19.6985 25.3655 -84.4248
rradius 131.691
rwrist -14.8283
rhand -33.5719 15.567
rfingers 7.12502
rthumb -6.76632 -14.3049
lclavicle -4.67144e-015 9.54166e-015
lhumerus -4.29281 -37.3516 76.4569
lradius 138.332
lwrist 1.68241
lhand -24.9528 3.71908
lfingers 7.12502
lthumb 1.55719 33.6931
rfemur -88.6843 0.885378 19.8812
rtibia 119.982
rfoot 8.19672 -0.755057
rtoes -10.9538
lfemur -4.17284 -5.81789 -32.3685
ltibia 34.5859
lfoot -16.1421 14.0276
ltoes 15.9091
176
root 2.45729 15.0275 1.72882 -10.0083 5.63762 1.174
lowerback 2.21889 -0.301175 1.03589
upperback 0.816248 -0.369217 1.68498
thorax -0.403152 -0.184882 1.15398
lowerneck -2.59909 0.062692 10.6451
upperneck 46.4314 -0.637299 -3.04796
head 17.7332 1.34587 -3.43284
rclavicle 1.55052e-014 2.38542e-015
rhumerus -19.4854 25.491 -84.1719
rradius 131.679
rwrist -15.2281
rhand -33.5545 15.3362
rfingers 7.12502
rthumb -6.74953 -14.5362
lclavicle 1.55052e-014 2.38542e-015
lhumerus -4.03769 -36.8856 75.9256
lradius 138.203
lwrist 1.57495
lhand -25.504 4.13746
lfingers 7.12502
lthumb 1.02484 34.1147
rfemur -88.3059 1.10613 20.3123
rtibia 122.474
rfoot 7.65477 -0.770295
rtoes -10.3331
lfemur -5.76064 -5.70758 -32.1422
ltibia 34.8345
lfoot -15.9808 14.4658
ltoes 16.1206
177
root 2.45881 15.0442 1.64792 -8.93095 4.73098 1.21379
lowerback 2.21284 -0.264664 1.10116
upperback 0.658468 -0.316305 1.66548
thorax -0.562452 -0.158657 1.09658
lowerneck -2.88328 0.316606 10.8143
upperneck 45.9985 -0.255665 -3.22596
head 17.5745 1.4783 -3.48739
rclavicle -1.25234e-014 1.66979e-014
rhumerus -19.2497 25.6159 -83.9345
rradius 131.609
rwrist -15.4675
rhand -33.6212 14.9099
rfingers 7.12502
rthumb -6.81388 -14.9604
lclavicle -1.25234e-014 1.66979e-014
lhumerus -3.77058 -36.3756 75.3871
lradius 138.074
lwrist 1.56263
lhand -25.9515 4.41711
lfingers 7.12502
lthumb 0.592557 34.396
rfemur -87.7627 1.24261 20.667
rtibia 124.728
rfoot 7.17383 -0.813898
rtoes -9.64613
lfemur -7.40966 -5.58192 -31.9257
ltibia 35.0526
lfoot -15.8022 14.8691
ltoes 16.3501
178
root 2.46105 15.0616 1.5668 -7.80491 3.83573 1.26353
lowerback 2.15649 -0.228239 1.13689
upperback 0.477699 -0.264847 1.63839
thorax -0.716865 -0.13332 1.04771
lowerneck -3.16562 0.570177 10.9941
upperneck 45.5927 0.130295 -3.42518
head 17.4382 1.61398 -3.55278
rclavicle 1.92821e-014 -1.59028e-014
rhumerus -18.9821 25.7497 -83.7096
rradius 131.486
rwrist -15.5503
rhand -33.7274 14.3649
rfingers 7.12502
rthumb -6.91644 -15.5021
lclavicle 1.92821e-014 -1.59028e-014
lhumerus -3.50631 -35.8349 74.8482
lradius 137.984
lwrist 1.62005
lhand -26.2515 4.6624
lfingers 7.12502
lthumb 0.302821 34.6419
rfemur -87.041 1.28314 20.9362
rtibia 126.732
rfoot 6.75228 -0.814829
rtoes -8.96624
lfemur -9.10276 -5.42582 -31.7163
ltibia 35.2429
lfoot -15.6079 15.2257
ltoes 16.5806
